<?xml version="1.0" encoding="UTF-8"?>
<!DOCTYPE svg PUBLIC "-//W3C//DTD SVG 1.1//EN" "http://www.w3.org/Graphics/SVG/1.1/DTD/svg11.dtd">
<!-- Creator: CorelDRAW 2020 (64-Bit) -->
<svg xmlns="http://www.w3.org/2000/svg" xml:space="preserve" width="200.068mm" height="49.6146mm" version="1.1" style="shape-rendering:geometricPrecision; text-rendering:geometricPrecision; image-rendering:optimizeQuality; fill-rule:evenodd; clip-rule:evenodd"
viewBox="0 0 625.469 155.109"
 xmlns:xlink="http://www.w3.org/1999/xlink"
 xmlns:xodm="http://www.corel.com/coreldraw/odm/2003">
 <defs>
  <style type="text/css">
   <![CDATA[
    .fil0 {fill:#15A97B}
   ]]>
  </style>
 </defs>
 <g id="Слой_x0020_1">
  <metadata id="CorelCorpID_0Corel-Layer"/>
  <g id="_2465065111744">
   <path class="fil0" d="M-0 155.109l179.991 0 -28.044 -48.452c-0.957,-1.672 -1.798,-3.149 -2.812,-4.864l-25.371 -43.714c-1.964,-3.32 -3.753,-6.353 -5.629,-9.723l-2.844 -4.832c-4.677,-7.724 -9.373,-16.428 -14.095,-24.286l-8.463 -14.565c-0.606,-1.115 -2.162,-4.111 -3.002,-4.674 -0.207,0.888 -1.41,2.746 -1.936,3.622 -4.859,8.087 -9.775,17.157 -14.691,25.278 -1.473,2.434 -2.673,4.745 -4.168,7.214l-10.52 18.066c-4.671,8.398 -9.991,16.917 -14.659,25.309l-16.742 28.785c-0.729,1.209 -1.467,2.458 -2.133,3.691 -0.693,1.281 -1.418,2.383 -2.118,3.706l23.558 0 5.342 -9.481c1.901,-3.14 3.561,-6.221 5.462,-9.361l13.697 -23.625c0.997,-1.647 1.737,-3.079 2.71,-4.702l8.176 -14.058c0.91,-1.636 1.86,-3.078 2.729,-4.683l4.749 -8.221c0.493,-0.928 0.032,-0.765 1.075,-1.043 0.269,1.157 5.924,10.384 6.708,11.82l13.625 23.432c6.824,11.273 13.743,24.074 20.611,35.504l11.942 20.615c0.578,0.964 1.38,2.006 1.641,3.123 -44.76,0 -88.79,0.265 -133.405,0.265 -0.526,0.785 -0.857,1.483 -1.372,2.334l-10.01 17.518z"/>
   <path class="fil0" d="M325.837 67.761l0 -12.705 19.058 0 0 34.41 -21.705 0 1.259 -4.829c1.095,-5.462 1.388,-11.175 1.388,-16.875zm-18.264 22.499l0 19.323 10.588 0 0 -10.323 32.557 0 0 10.323 10.588 0 0 -19.323c0,-1.344 -2.431,-0.794 -6.088,-0.794l0 -43.939 -38.38 0c-1.116,0 -0.823,1.195 -0.803,2.373 0.152,9.225 0.501,28.47 -1.308,36.014 -1.314,5.481 -1.901,5.622 -4.502,5.556 -1.217,-0.031 -2.65,-0.362 -2.65,0.791z"/>
   <path class="fil0" d="M590 69.879l0 -14.823 19.058 0 0 34.41 -21.705 0c0.365,-1.566 0.846,-2.473 1.215,-4.343 1.027,-5.212 1.432,-9.69 1.432,-15.244zm-9.794 1.853c0,2.985 -0.954,17.734 -4.235,17.734l-3.97 0 0 20.117 10.323 0 0 -10.323 32.557 0 0 9.529c0,0.61 0.184,0.794 0.794,0.794l9.794 0 0 -20.117 -6.088 0 0 -43.939 -39.175 0 0 26.205z"/>
   <path class="fil0" d="M199.578 99.26l10.323 0 0 -32.822 1.585 2.915c0.533,1.2 0.9,2.055 1.503,3.261 0.555,1.109 0.943,1.891 1.5,2.999l4.564 9.465c0.934,2.262 1.945,4.204 3.023,6.241l8.735 0c0.437,-1.875 1.939,-4.411 2.824,-6.176l8.896 -18.367c0.024,-0.045 0.076,-0.133 0.095,-0.169 0.019,-0.036 0.059,-0.116 0.096,-0.169l0 32.822 9.794 0c0.61,0 0.794,-0.184 0.794,-0.794l0 -52.939 -10.588 0c-0.257,1.103 -1.376,3.017 -1.941,4.147 -0.782,1.564 -1.33,2.741 -2.033,4.32l-8.11 16.771c-1.121,2.336 -3.517,6.303 -4.062,8.643 -0.873,-0.64 -1.71,-2.898 -2.295,-4.058l-4.146 -8.559c-0.752,-1.496 -1.316,-2.901 -2.029,-4.324 -0.708,-1.411 -1.407,-2.825 -2.119,-4.234l-4.149 -8.556c-2.58,-5.156 0.682,-4.15 -12.261,-4.15l0 53.733z"/>
   <polygon class="fil0" points="262.84,99.26 298.044,99.26 298.044,89.466 273.163,89.466 273.163,75.967 293.544,75.967 293.544,66.438 273.163,66.438 273.163,55.056 298.044,55.056 298.044,45.527 262.84,45.527 "/>
   <polygon class="fil0" points="416.361,99.26 451.565,99.26 451.565,89.466 426.684,89.466 426.684,75.967 447.066,75.967 447.066,66.438 426.684,66.438 426.684,55.056 451.565,55.056 451.565,45.527 416.361,45.527 "/>
   <path class="fil0" d="M479.094 71.996l-17.999 27.263 12.705 0 11.647 -18.264c0.764,0.559 3.573,5.27 4.448,6.669 0.56,0.896 0.992,1.46 1.556,2.415l5.908 9.18 12.44 0c-0.22,-0.826 -7.74,-12.007 -8.841,-13.658 -0.481,-0.722 -8.951,-13.097 -8.894,-13.605 0.618,-1.168 1.317,-2.108 2.065,-3.229l15.14 -23.24 -12.705 0c-0.331,1.24 -10.44,16.189 -10.853,17.734l-11.382 -17.734 -12.705 0 17.47 26.469z"/>
   <polygon class="fil0" points="528.591,55.056 544.473,55.056 544.473,99.26 554.796,99.26 554.796,55.056 570.677,55.056 570.677,45.527 528.591,45.527 "/>
   <polygon class="fil0" points="364.746,55.056 380.628,55.056 380.628,99.26 390.951,99.26 390.951,55.056 406.568,55.056 406.568,45.527 364.746,45.527 "/>
  </g>
 </g>
</svg>
